# xmcd CD database file
#
# Track frame offsets:
#	150
#	13632
#	41613
#	61999
#	69949
#	103002
#	111800
#	139628
#	171872
#	201978
#	211423
#	243128
#
# Disc length: 3449 seconds
#
# Revision: 0
# Processed by: cddbd v1.5.2PL0 Copyright (c) Steve Scherf et al.
# Submitted via: CDex 1.70beta2
#
DISCID=a30d770c
DTITLE=Karl Seglem and Christoph Stiefel - Waves
DYEAR=2015
DGENRE=Jazz
TTITLE0=First Light
TTITLE1=Svai
TTITLE2=Kraftsuppe
TTITLE3=Symphonic Dream
TTITLE4=Wide Ocean
TTITLE5=In the Sand
TTITLE6=Waves
TTITLE7=Fjellsti (The Call and the Gathering)
TTITLE8=Sove Roleg
TTITLE9=Vulkan (No Fear)
TTITLE10=North
TTITLE11=Alt Du Er
EXTD=YEAR: 2015
EXTT0=
EXTT1=
EXTT2=
EXTT3=
EXTT4=
EXTT5=
EXTT6=
EXTT7=
EXTT8=
EXTT9=
EXTT10=
EXTT11=
PLAYORDER=
